<?xml version="1.0" standalone="no"?>
<!DOCTYPE svg PUBLIC "-//W3C//DTD SVG 20010904//EN"
 "http://www.w3.org/TR/2001/REC-SVG-20010904/DTD/svg10.dtd">
<svg version="1.0" xmlns="http://www.w3.org/2000/svg"
 width="420.000000pt" height="420.000000pt" viewBox="0 0 420.000000 420.000000"
 preserveAspectRatio="xMidYMid meet">

<g transform="translate(0.000000,420.000000) scale(0.100000,-0.100000)"
fill="#000000" stroke="none">
<path d="M1967 3909 c-894 -64 -1619 -793 -1676 -1685 -42 -681 282 -1311 861
-1670 765 -474 1783 -301 2352 399 635 782 517 1928 -264 2556 -231 186 -499
313 -785 370 -89 18 -134 23 -320 35 -27 1 -103 -1 -168 -5z m850 -589 c93
-32 92 -30 54 -188 -19 -76 -35 -140 -37 -144 -3 -3 -29 2 -58 13 -198 69
-334 3 -401 -196 -20 -58 -45 -203 -45 -257 l0 -38 188 0 187 0 0 -148 0 -147
-209 -5 -210 -5 -43 -365 c-26 -223 -53 -405 -68 -467 -76 -302 -206 -456
-431 -509 -126 -29 -357 -3 -429 50 -20 14 -20 16 14 149 19 75 37 140 41 146
4 8 21 5 55 -10 54 -24 153 -35 210 -25 84 16 152 121 185 289 18 86 90 669
90 722 l0 24 -142 3 -143 3 -3 148 -3 147 165 0 165 0 6 48 c38 275 87 421
188 559 81 109 202 187 338 218 90 21 255 13 336 -15z"/>
</g>
</svg>
